<svg width="304" height="51" viewBox="0 0 304 51" fill="none" xmlns="http://www.w3.org/2000/svg">
<path d="M15.81 24.828C17.1473 25.0773 18.2467 25.746 19.108 26.834C19.9693 27.922 20.4 29.1687 20.4 30.574C20.4 31.8433 20.0827 32.9653 19.448 33.94C18.836 34.892 17.9407 35.64 16.762 36.184C15.5833 36.728 14.1893 37 12.58 37H2.346V13.268H12.138C13.7473 13.268 15.13 13.5287 16.286 14.05C17.4647 14.5713 18.3487 15.2967 18.938 16.226C19.55 17.1553 19.856 18.2093 19.856 19.388C19.856 20.7707 19.482 21.9267 18.734 22.856C18.0087 23.7853 17.034 24.4427 15.81 24.828ZM7.106 23.06H11.458C12.5913 23.06 13.464 22.8107 14.076 22.312C14.688 21.7907 14.994 21.054 14.994 20.102C14.994 19.15 14.688 18.4133 14.076 17.892C13.464 17.3707 12.5913 17.11 11.458 17.11H7.106V23.06ZM11.9 33.124C13.056 33.124 13.9513 32.852 14.586 32.308C15.2433 31.764 15.572 30.9933 15.572 29.996C15.572 28.976 15.232 28.1827 14.552 27.616C13.872 27.0267 12.954 26.732 11.798 26.732H7.106V33.124H11.9ZM28.9537 13.268V37H24.1937V13.268H28.9537ZM38.5185 32.988H49.1945V37H33.0105V33.328L43.6185 17.28H33.0105V13.268H49.1945V16.94L38.5185 32.988Z" fill="#7FC5C7"/>
<path d="M87.222 13.268V37H82.462V21.564L76.104 37H72.5L66.108 21.564V37H61.348V13.268H66.754L74.302 30.914L81.85 13.268H87.222ZM90.704 27.514C90.704 25.61 91.078 23.9213 91.826 22.448C92.5967 20.9747 93.628 19.8413 94.92 19.048C96.2347 18.2547 97.6967 17.858 99.306 17.858C100.711 17.858 101.935 18.1413 102.978 18.708C104.043 19.2747 104.893 19.9887 105.528 20.85V18.164H110.322V37H105.528V34.246C104.916 35.13 104.066 35.8667 102.978 36.456C101.913 37.0227 100.677 37.306 99.272 37.306C97.6854 37.306 96.2347 36.898 94.92 36.082C93.628 35.266 92.5967 34.1213 91.826 32.648C91.078 31.152 90.704 29.4407 90.704 27.514ZM105.528 27.582C105.528 26.426 105.301 25.44 104.848 24.624C104.395 23.7853 103.783 23.1507 103.012 22.72C102.241 22.2667 101.414 22.04 100.53 22.04C99.646 22.04 98.83 22.2553 98.082 22.686C97.334 23.1167 96.722 23.7513 96.246 24.59C95.7927 25.406 95.566 26.3807 95.566 27.514C95.566 28.6473 95.7927 29.6447 96.246 30.506C96.722 31.3447 97.334 31.9907 98.082 32.444C98.8527 32.8973 99.6687 33.124 100.53 33.124C101.414 33.124 102.241 32.9087 103.012 32.478C103.783 32.0247 104.395 31.39 104.848 30.574C105.301 29.7353 105.528 28.738 105.528 27.582ZM125.409 17.892C127.653 17.892 129.466 18.606 130.849 20.034C132.232 21.4393 132.923 23.4113 132.923 25.95V37H128.163V26.596C128.163 25.1 127.789 23.9553 127.041 23.162C126.293 22.346 125.273 21.938 123.981 21.938C122.666 21.938 121.624 22.346 120.853 23.162C120.105 23.9553 119.731 25.1 119.731 26.596V37H114.971V18.164H119.731V20.51C120.366 19.694 121.17 19.0593 122.145 18.606C123.142 18.13 124.23 17.892 125.409 17.892ZM136.226 27.514C136.226 25.61 136.6 23.9213 137.348 22.448C138.118 20.9747 139.15 19.8413 140.442 19.048C141.756 18.2547 143.218 17.858 144.828 17.858C146.233 17.858 147.457 18.1413 148.5 18.708C149.565 19.2747 150.415 19.9887 151.05 20.85V18.164H155.844V37H151.05V34.246C150.438 35.13 149.588 35.8667 148.5 36.456C147.434 37.0227 146.199 37.306 144.794 37.306C143.207 37.306 141.756 36.898 140.442 36.082C139.15 35.266 138.118 34.1213 137.348 32.648C136.6 31.152 136.226 29.4407 136.226 27.514ZM151.05 27.582C151.05 26.426 150.823 25.44 150.37 24.624C149.916 23.7853 149.304 23.1507 148.534 22.72C147.763 22.2667 146.936 22.04 146.052 22.04C145.168 22.04 144.352 22.2553 143.604 22.686C142.856 23.1167 142.244 23.7513 141.768 24.59C141.314 25.406 141.088 26.3807 141.088 27.514C141.088 28.6473 141.314 29.6447 141.768 30.506C142.244 31.3447 142.856 31.9907 143.604 32.444C144.374 32.8973 145.19 33.124 146.052 33.124C146.936 33.124 147.763 32.9087 148.534 32.478C149.304 32.0247 149.916 31.39 150.37 30.574C150.823 29.7353 151.05 28.738 151.05 27.582ZM167.87 17.858C169.276 17.858 170.511 18.1413 171.576 18.708C172.642 19.252 173.48 19.966 174.092 20.85V18.164H178.886V37.136C178.886 38.8813 178.535 40.434 177.832 41.794C177.13 43.1767 176.076 44.2647 174.67 45.058C173.265 45.874 171.565 46.282 169.57 46.282C166.896 46.282 164.697 45.6587 162.974 44.412C161.274 43.1653 160.311 41.4653 160.084 39.312H164.81C165.06 40.1733 165.592 40.8533 166.408 41.352C167.247 41.8733 168.256 42.134 169.434 42.134C170.817 42.134 171.939 41.7147 172.8 40.876C173.662 40.06 174.092 38.8133 174.092 37.136V34.212C173.48 35.096 172.63 35.8327 171.542 36.422C170.477 37.0113 169.253 37.306 167.87 37.306C166.284 37.306 164.833 36.898 163.518 36.082C162.204 35.266 161.161 34.1213 160.39 32.648C159.642 31.152 159.268 29.4407 159.268 27.514C159.268 25.61 159.642 23.9213 160.39 22.448C161.161 20.9747 162.192 19.8413 163.484 19.048C164.799 18.2547 166.261 17.858 167.87 17.858ZM174.092 27.582C174.092 26.426 173.866 25.44 173.412 24.624C172.959 23.7853 172.347 23.1507 171.576 22.72C170.806 22.2667 169.978 22.04 169.094 22.04C168.21 22.04 167.394 22.2553 166.646 22.686C165.898 23.1167 165.286 23.7513 164.81 24.59C164.357 25.406 164.13 26.3807 164.13 27.514C164.13 28.6473 164.357 29.6447 164.81 30.506C165.286 31.3447 165.898 31.9907 166.646 32.444C167.417 32.8973 168.233 33.124 169.094 33.124C169.978 33.124 170.806 32.9087 171.576 32.478C172.347 32.0247 172.959 31.39 173.412 30.574C173.866 29.7353 174.092 28.738 174.092 27.582ZM201.045 27.174C201.045 27.854 201 28.466 200.909 29.01H187.139C187.253 30.37 187.729 31.4353 188.567 32.206C189.406 32.9767 190.437 33.362 191.661 33.362C193.429 33.362 194.687 32.6027 195.435 31.084H200.569C200.025 32.8973 198.983 34.3933 197.441 35.572C195.9 36.728 194.007 37.306 191.763 37.306C189.95 37.306 188.318 36.9093 186.867 36.116C185.439 35.3 184.317 34.1553 183.501 32.682C182.708 31.2087 182.311 29.5087 182.311 27.582C182.311 25.6327 182.708 23.9213 183.501 22.448C184.295 20.9747 185.405 19.8413 186.833 19.048C188.261 18.2547 189.905 17.858 191.763 17.858C193.554 17.858 195.152 18.2433 196.557 19.014C197.985 19.7847 199.085 20.884 199.855 22.312C200.649 23.7173 201.045 25.338 201.045 27.174ZM196.115 25.814C196.093 24.59 195.651 23.6153 194.789 22.89C193.928 22.142 192.874 21.768 191.627 21.768C190.449 21.768 189.451 22.1307 188.635 22.856C187.842 23.5587 187.355 24.5447 187.173 25.814H196.115ZM227.912 17.892C230.224 17.892 232.082 18.606 233.488 20.034C234.916 21.4393 235.63 23.4113 235.63 25.95V37H230.87V26.596C230.87 25.1227 230.496 24.0007 229.748 23.23C229 22.4367 227.98 22.04 226.688 22.04C225.396 22.04 224.364 22.4367 223.594 23.23C222.846 24.0007 222.472 25.1227 222.472 26.596V37H217.712V26.596C217.712 25.1227 217.338 24.0007 216.59 23.23C215.842 22.4367 214.822 22.04 213.53 22.04C212.215 22.04 211.172 22.4367 210.402 23.23C209.654 24.0007 209.28 25.1227 209.28 26.596V37H204.52V18.164H209.28V20.442C209.892 19.6487 210.674 19.0253 211.626 18.572C212.6 18.1187 213.666 17.892 214.822 17.892C216.295 17.892 217.61 18.2093 218.766 18.844C219.922 19.456 220.817 20.34 221.452 21.496C222.064 20.408 222.948 19.5353 224.104 18.878C225.282 18.2207 226.552 17.892 227.912 17.892ZM257.657 27.174C257.657 27.854 257.611 28.466 257.521 29.01H243.751C243.864 30.37 244.34 31.4353 245.179 32.206C246.017 32.9767 247.049 33.362 248.273 33.362C250.041 33.362 251.299 32.6027 252.047 31.084H257.181C256.637 32.8973 255.594 34.3933 254.053 35.572C252.511 36.728 250.619 37.306 248.375 37.306C246.561 37.306 244.929 36.9093 243.479 36.116C242.051 35.3 240.929 34.1553 240.113 32.682C239.319 31.2087 238.923 29.5087 238.923 27.582C238.923 25.6327 239.319 23.9213 240.113 22.448C240.906 20.9747 242.017 19.8413 243.445 19.048C244.873 18.2547 246.516 17.858 248.375 17.858C250.165 17.858 251.763 18.2433 253.169 19.014C254.597 19.7847 255.696 20.884 256.467 22.312C257.26 23.7173 257.657 25.338 257.657 27.174ZM252.727 25.814C252.704 24.59 252.262 23.6153 251.401 22.89C250.539 22.142 249.485 21.768 248.239 21.768C247.06 21.768 246.063 22.1307 245.247 22.856C244.453 23.5587 243.966 24.5447 243.785 25.814H252.727ZM271.569 17.892C273.813 17.892 275.626 18.606 277.009 20.034C278.392 21.4393 279.083 23.4113 279.083 25.95V37H274.323V26.596C274.323 25.1 273.949 23.9553 273.201 23.162C272.453 22.346 271.433 21.938 270.141 21.938C268.826 21.938 267.784 22.346 267.013 23.162C266.265 23.9553 265.891 25.1 265.891 26.596V37H261.131V18.164H265.891V20.51C266.526 19.694 267.33 19.0593 268.305 18.606C269.302 18.13 270.39 17.892 271.569 17.892ZM289.152 22.074V31.186C289.152 31.8207 289.299 32.2853 289.594 32.58C289.911 32.852 290.432 32.988 291.158 32.988H293.368V37H290.376C286.364 37 284.358 35.0507 284.358 31.152V22.074H282.114V18.164H284.358V13.506H289.152V18.164H293.368V22.074H289.152ZM298.899 37.238C298.038 37.238 297.324 36.9773 296.757 36.456C296.213 35.912 295.941 35.2433 295.941 34.45C295.941 33.6567 296.213 32.9993 296.757 32.478C297.324 31.934 298.038 31.662 298.899 31.662C299.738 31.662 300.429 31.934 300.973 32.478C301.517 32.9993 301.789 33.6567 301.789 34.45C301.789 35.2433 301.517 35.912 300.973 36.456C300.429 36.9773 299.738 37.238 298.899 37.238Z" fill="#001111"/>
</svg>
